inDegrees=yes
name=ik_data_2024_11_07_17_56
DataType=double
version=3
OpenSimVersion=4.5.1
endheader
time	pelvis_tilt	pelvis_list	pelvis_rotation	pelvis_tx	pelvis_ty	pelvis_tz	hip_flexion_r	hip_adduction_r	hip_rotation_r	knee_angle_r	knee_angle_r_beta	ankle_angle_r	subtalar_angle_r	mtp_angle_r	hip_flexion_l	hip_adduction_l	hip_rotation_l	knee_angle_l	knee_angle_l_beta	ankle_angle_l	subtalar_angle_l	mtp_angle_l	lumbar_extension	lumbar_bending	lumbar_rotation	arm_flex_r	arm_add_r	arm_rot_r	elbow_flex_r	pro_sup_r	wrist_flex_r	wrist_dev_r	arm_flex_l	arm_add_l	arm_rot_l	elbow_flex_l	pro_sup_l	wrist_flex_l	wrist_dev_l
5.0263	-3.673424295371694	-1.550759739674961	-3.390794218040308	0	0.9399999999999999	0	28.04022365145115	2.126218425087501	9.669883501268609	35.70966921851527	0.6232513026611618	-4.20409833577115	0	0	3.833268744378664	-1.833407732085189	-13.85362162433992	0.5114691705928706	0.008926821049290148	-4.20409833577115	0	0	0	0	0	0	-2.695965277130613	0	58.79882502024893	49.97164552530634	0	0	0	-2.695965277130613	0	58.79882502024893	49.97164552530634	0	0
5.09124	-3.7383920678598	-1.343141620158341	-1.439132303384568	0	0.9399999999999999	0	26.26582677691716	1.190645338826655	8.134466629579865	33.07599412044803	0.577285000772104	-4.214009293892826	0	0	3.955802839053094	-1.49707060999798	-11.90755214918674	0.5083943184063929	0.008873154754623967	-4.214009293892826	0	0	0	0	0	0	-2.713642209038404	0	58.84576385221163	49.93343929590367	0	0	0	-2.713642209038404	0	58.84576385221163	49.93343929590367	0	0
5.09376	-3.805574533620212	-1.180190373591887	-0.02895552389902337	0	0.9399999999999999	0	24.57494051595133	0.6134865328075689	7.054138413448431	30.32977953070304	0.5293545142147487	-4.217033974316347	0	0	4.0637003751589	-1.23540139346598	-10.52454427477186	0.5122393929939107	0.008940263966160916	-4.217033974316347	0	0	0	0	0	0	-2.719092466715323	0	58.86018021842574	49.92175599779309	0	0	0	-2.719092466715323	0	58.86018021842574	49.92175599779309	0	0
5.14239	-4.032022641456297	-0.9888688728992331	1.787770040279395	0	0.9399999999999999	0	23.37195806354092	0.006596771001984035	5.517451247320937	28.4319174228217	0.4962305716833794	-4.219114344438988	0	0	4.316441752652255	-0.9062434265390314	-8.716291536605105	0.5147507457889969	0.008984095341114332	-4.219114344438988	0	0	0	0	0	0	-2.722856195456694	0	58.87012762288781	49.91370836288181	0	0	0	-2.722856195456694	0	58.87012762288781	49.91370836288181	0	0
5.21008	-4.11372257519308	-0.9454996475394815	2.107007992017842	0	0.9399999999999999	0	22.24133562995166	0.1827477458805093	5.277045238981972	26.74553409747754	0.4667976302053931	-4.221755642174203	0	0	4.407051284324898	-0.8400547089192882	-8.404724225118752	0.5142867414243839	0.008975996937208212	-4.221755642174203	0	0	0	0	0	0	-2.727612174311574	0	58.88272471019695	49.90349550594383	0	0	0	-2.727612174311574	0	58.88272471019695	49.90349550594383	0	0
5.25951	-4.108088553240353	-0.974395951856198	1.841011601931577	0	0.9399999999999999	0	21.28679447748003	0.6278856941822725	5.547949940945123	25.29278659073345	0.4414424030125702	-4.224439630046554	0	0	4.396178458685807	-0.8886891261544785	-8.667475587673984	0.5148767806182248	0.008986295063856549	-4.224439630046554	0	0	0	0	0	0	-2.732477669447283	0	58.89558873949316	49.89309654885621	0	0	0	-2.732477669447283	0	58.89558873949316	49.89309654885621	0	0
5.27385	-4.205196947704027	-0.8692367318258775	2.791744783665996	0	0.9399999999999999	0	20.55243194667875	0.3302132270524788	4.81470482611292	23.29566223721175	0.4065860074718534	-4.226862187834547	0	0	4.504539831082329	-0.7069448446095759	-7.728391227126315	0.513930220263966	0.008969774469105888	-4.226862187834547	0	0	0	0	0	0	-2.736922949794632	0	58.90729640268463	49.88368215897455	0	0	0	-2.736922949794632	0	58.90729640268463	49.88368215897455	0	0
5.32774	-4.409796236507542	-0.6717115167378226	4.572290435707953	0	0.9399999999999999	0	20.30986810007597	-0.5244909080065008	3.325566042612683	21.87157068655064	0.3817309210629854	-4.228609990858404	0	0	4.715481227268215	-0.3556634745593327	-5.972479051996468	0.5118909820463875	0.008934183047976642	-4.228609990858404	0	0	0	0	0	0	-2.740151096361199	0	58.91578403024739	49.87687649281959	0	0	0	-2.740151096361199	0	58.91578403024739	49.87687649281959	0	0
5.39042	-4.632932586921145	-0.5910043330324769	5.244959310884531	0	0.9399999999999999	0	20.28272767481567	-0.7530531228140545	2.774119783252349	21.02812172051521	0.3670099595331253	-4.229709897205298	0	0	4.931096055836872	-0.1984079810244657	-5.29629625618287	0.512578742580146	0.008946186733756002	-4.229709897205298	0	0	0	0	0	0	-2.742211176149461	0	58.92117709675799	49.87257860453064	0	0	0	-2.742211176149461	0	58.92117709675799	49.87257860453064	0	0
5.45337	-4.610470361075196	-0.5295304894581528	5.848448629962988	0	0.9399999999999999	0	20.24568646677351	-0.9979261449401691	2.26080077546124	20.71113237150657	0.3614774516991711	-4.230721547057797	0	0	4.910004235271711	-0.07666915152898153	-4.694723555016259	0.525212617395285	0.009166689446564968	-4.230721547057797	0	0	0	0	0	0	-2.744095528733202	0	58.92612213789246	49.86862823269608	0	0	0	-2.744095528733202	0	58.92612213789246	49.86862823269608	0	0
5.45488	-4.485842692749971	-0.4496886349957848	6.568584462947133	0	0.9399999999999999	0	20.29325147282769	-1.395763792884622	1.617569081913843	20.69204957089266	0.3611443939979568	-4.231665492313631	0	0	4.777745432490531	0.0397253131656379	-3.995326220589772	0.5332708194945326	0.009307331604987958	-4.231665492313631	0	0	0	0	0	0	-2.745858077157848	0	58.93074374912682	49.86494008150402	0	0	0	-2.745858077157848	0	58.93074374912682	49.86494008150402	0	0
5.50917	-4.372856353241957	-0.3798917095069494	7.118418928859754	0	0.9399999999999999	0	20.79051679403227	-1.625967394593674	1.091186612230027	21.26891608536564	0.3712126140200137	-4.233124474971357	0	0	4.643190447852944	0.1336627893345518	-3.449974904153231	0.5024313553954033	0.008769081416907564	-4.233124474971357	0	0	0	0	0	0	-2.748531606721461	0	58.93780112417443	49.85926133260011	0	0	0	-2.748531606721461	0	58.93780112417443	49.85926133260011	0	0
5.57168	-4.431602053206407	-0.3588104230920107	7.324713214878705	0	0.9399999999999999	0	21.71163141094613	-1.817702150408413	0.8706845249534271	22.42267408740196	0.391349489926779	-4.235088765404725	0	0	4.69858533907184	0.1879931642620991	-3.249388618388985	0.500010619623637	0.008726831607369437	-4.235088765404725	0	0	0	0	0	0	-2.752150295048211	0	58.9473439499603	49.85160070529546	0	0	0	-2.752150295048211	0	58.9473439499603	49.85160070529546	0	0
5.62437	-4.442467220277203	-0.3826869504526684	7.111347179378882	0	0.9399999999999999	0	22.77136329593753	-1.691127558880311	0.9745055844072047	24.29951211416126	0.4241064930203623	-4.23972597547551	0	0	4.717809347363134	0.1452787250256138	-3.445103401188743	0.5057746088563694	0.008827432197530117	-4.23972597547551	0	0	0	0	0	0	-2.761037076423939	0	58.97055118654264	49.83329440055962	0	0	0	-2.761037076423939	0	58.97055118654264	49.83329440055962	0	0
5.63314	-4.474319031443121	-0.4290251500259532	6.670908916763438	0	0.9399999999999999	0	24.04717955977013	-1.528617729293509	1.281735627543572	26.25467298855345	0.4582304876846772	-4.242811903579774	0	0	4.739474360176267	0.05777475673861487	-3.903638325111766	0.4961717543410931	0.008659830768648543	-4.242811903579774	0	0	0	0	0	0	-2.766927576565062	0	58.98594344875823	49.82112857592569	0	0	0	-2.766927576565062	0	58.98594344875823	49.82112857592569	0	0
5.69193	-4.412422617156248	-0.3311606463880661	7.570573757139241	0	0.9399999999999999	0	25.58423167443524	-2.212526528528484	0.4785166716401621	28.27880911282842	0.4935583275618325	-4.245521909469576	0	0	4.678559912983522	0.2299592384522366	-3.005630403692154	0.508548964894282	0.008875853845014279	-4.245521909469576	0	0	0	0	0	0	-2.77194014569383	0	58.99916748507913	49.81052957923535	0	0	0	-2.77194014569383	0	58.99916748507913	49.81052957923535	0	0
5.74259	-4.403619092243448	-0.3962160787647861	7.007747701663058	0	0.9399999999999999	0	27.40358363085302	-2.576387305906248	1.056349231634746	30.94005884590811	0.5400058976218934	-4.248347120831041	0	0	4.682613383940124	0.1145019728945717	-3.551910947858118	0.5124444005733917	0.008943842023414403	-4.248347120831041	0	0	0	0	0	0	-2.777184283645165	0	59.01299316634346	49.79946495666475	0	0	0	-2.777184283645165	0	59.01299316634346	49.79946495666475	0	0
5.8106	-4.136701109168917	-0.3725327940327253	7.201750040571411	0	0.9399999999999999	0	29.11102856312255	-3.05164856756	0.9321080592443658	33.79795888051311	0.5898856629186106	-4.250085043432164	0	0	4.388837784631487	0.1303723007866069	-3.359988249374835	0.4792326310193368	0.008364187294282536	-4.250085043432164	0	0	0	0	0	0	-2.780468348380638	0	59.02160384770904	49.79262757470332	0	0	0	-2.780468348380638	0	59.02160384770904	49.79262757470332	0	0
5.81364	-4.039263279242641	-0.4581278675494141	6.448760014847324	0	0.9399999999999999	0	31.41815312915953	-3.07967704420153	1.643897882182492	37.21062606241366	0.6494479415175314	-4.252951250347684	0	0	4.323441889794461	-0.03857030573712991	-4.10572798019189	0.5092293513631624	0.008887728829082259	-4.252951250347684	0	0	0	0	0	0	-2.785838092588625	0	59.03573090703949	49.78136686472437	0	0	0	-2.785838092588625	0	59.03573090703949	49.78136686472437	0	0
5.8596	-3.763482279674848	-0.5256799190681584	5.826165351063312	0	0.9399999999999999	0	33.60407205664409	-3.121594149547374	2.259128876251719	40.3756145064381	0.7046874106533301	-4.255494710418903	0	0	4.056691538157046	-0.1736545608339929	-4.723885435786044	0.5100105165433404	0.008901362733478298	-4.255494710418903	0	0	0	0	0	0	-2.790601591440992	0	59.04827246055657	49.77136811727458	0	0	0	-2.790601591440992	0	59.04827246055657	49.77136811727458	0	0
5.92607	-3.521180044066359	-0.6362328464028701	4.863233407588552	0	0.9399999999999999	0	36.07377229620879	-2.995971103328541	3.156752152101977	43.92654625494887	0.7666628611784423	-4.258119242737025	0	0	3.819905670379666	-0.366124455049712	-5.682662229334306	0.5134323699944289	0.008961085342720524	-4.258119242737025	0	0	0	0	0	0	-2.795535098448326	0	59.06125256531893	49.76103601506876	0	0	0	-2.795535098448326	0	59.06125256531893	49.76103601506876	0	0
5.99175	-3.353428489690135	-0.8144764452238336	3.271286134845439	0	0.9399999999999999	0	38.78861165199284	-2.383777515880096	4.478564439777518	47.45742411192476	0.828288305268433	-4.260965973876488	0	0	3.65175455612447	-0.6619446063376885	-7.262947595850157	0.5071683428976189	0.008851757445447049	-4.260965973876488	0	0	0	0	0	0	-2.800891462156779	0	59.07534894403111	49.74981956401793	0	0	0	-2.800891462156779	0	59.07534894403111	49.74981956401793	0	0
